<svg xmlns="http://www.w3.org/2000/svg" width="32" height="32" viewBox="0 0 256 257">
  <defs>
    <linearGradient id="logosVitejs0" x1="-.828%" x2="57.636%" y1="7.652%" y2="78.411%">
      <stop offset="0%" stop-color="#41D1FF"/>
      <stop offset="100%" stop-color="#BD34FE"/>
    </linearGradient>
    <linearGradient id="logosVitejs1" x1="43.376%" x2="50.316%" y1="2.242%" y2="89.03%">
      <stop offset="0%" stop-color="#FFEA83"/>
      <stop offset="8.333%" stop-color="#FFDD35"/>
      <stop offset="100%" stop-color="#FFA800"/>
    </linearGradient>
  </defs>
  <path fill="url(#logosVitejs0)" d="M255.153 37.938L134.897 252.976c-2.483 4.44-8.862 4.466-11.382.048L.875 37.958c-2.746-4.814 1.371-10.646 6.827-9.67l120.385 21.517a6.537 6.537 0 0 0 2.322-.004l117.867-21.483c5.438-.991 9.574 4.796 6.877 9.62Z"/>
  <path fill="url(#logosVitejs1)" d="M191.362 76.026L78.757 94.674c-5.137.849-7.483 6.995-4.181 10.939l73.734 88.262c2.051 2.45 5.684 2.459 7.748.02l81.202-95.84c3.358-3.969 1.063-10.193-4.108-11.129l-41.79-10.9Z"/>
</svg>